<?xml version="1.0" encoding="utf-8"?>
<!-- Generator: Adobe Illustrator 19.2.0, SVG Export Plug-In . SVG Version: 6.00 Build 0)  -->
<svg version="1.1" id="Layer_1" xmlns="http://www.w3.org/2000/svg" xmlns:xlink="http://www.w3.org/1999/xlink" x="0px" y="0px"
	 viewBox="0 0 376 196" style="enable-background:new 0 0 376 196;" xml:space="preserve">
<style type="text/css">
	.st0{fill:#010101;}
</style>
<g>
	<path class="st0" d="M188,196c-49.3,0-95.8-9.7-130.9-27.2C20.3,150.4,0,125.2,0,98s20.3-52.4,57.1-70.8C92.2,9.7,138.7,0,188,0
		s95.8,9.7,130.9,27.2C355.7,45.6,376,70.8,376,98s-20.3,52.4-57.1,70.8C283.8,186.3,237.3,196,188,196z M188,16
		c-46.9,0-90.8,9.1-123.7,25.5C33.2,57.1,16,77.1,16,98s17.2,40.9,48.3,56.5C97.2,170.9,141.1,180,188,180s90.8-9.1,123.7-25.5
		C342.8,138.9,360,118.9,360,98s-17.2-40.9-48.3-56.5C278.8,25.1,234.9,16,188,16z"/>
</g>
<g>
	<g>
		<g>
			<g>
				<path class="st0" d="M86.3,55.9C87.2,55.5,88,56,88,57v82c0,1-0.8,1.5-1.7,1.1l-14.5-6.7c-0.9-0.4-1.6-1.6-1.6-2.6V65.2
					c0-1,0.7-2.2,1.6-2.6L86.3,55.9z"/>
			</g>
			<g>
				<path class="st0" d="M137.3,42c5.6-0.8,10.9-1,15.7-0.2c4.8,0.8,11.6,3.7,11.6,3.7c0.9,0.4,1.5,1.5,1.2,2.5l-3.6,14.7
					c-0.2,1-1.2,1.4-2.1,1c0,0-6.8-3.3-10.7-4.2c-3.9-1-7.6-1.2-11.3-0.8c-5.2,0.6-9.1,2.3-11.9,5s-4.2,5.9-4.2,9.8
					c0,3.8,1.1,6.6,3.4,8.5s9.6,4.8,9.6,4.8c0.9,0.4,2.4,0.9,3.4,1.2l6,2.1c0.9,0.3,2.4,1,3.3,1.4c0,0,12.8,6.4,17.2,12
					c4.4,5.6,6.6,12.3,6.6,19.9c0,5-0.9,9.5-2.6,13.6s-4.2,7.5-7.4,10.4c-3.2,2.9-7.1,4.9-11.6,6s-9.6,1.2-15.2,0.3
					c-5.4-0.9-10.6-2.6-15.6-4.9c-4.9-2.3-12.4-7.6-12.4-7.6c-0.8-0.6-1.2-1.8-1-2.8l2.9-10c0.3-1,1.2-1.3,2-0.8
					c0,0,6.5,4.1,10.5,5.8c4,1.8,8.2,3,12.8,3.5c5.4,0.7,9.8-0.1,13-2.3c3.2-2.2,4.8-5.7,4.8-10.5c0-1.7-0.3-3.3-0.8-4.8
					c-0.5-1.6-1.4-3-2.7-4.4c-1.3-1.4-3.1-2.8-5.3-4c-2.2-1.3-6.8-3.3-6.8-3.3c-0.9-0.4-2.4-1-3.3-1.4l-5-2c-0.9-0.4-2.4-1-3.3-1.5
					c0,0-10.4-5.4-14.3-9.3c-3.9-4-5.7-9.3-5.7-16.4c0-8.2,2.8-15.4,8.1-21.8C118.1,48.4,128.9,43.2,137.3,42z"/>
			</g>
			<g>
				<path class="st0" d="M191.7,157.8c-1,0-1.8-0.8-1.8-1.8V40c0-1,0.8-1.8,1.8-1.8l16.1,0.6c1,0.1,1.8,0.9,1.8,1.9v44.2
					c0,1,0.8,1.8,1.8,1.8l36.5,0.9c1,0,1.8-0.8,1.8-1.7v-40c0-1,0.8-1.6,1.8-1.4l14,3.3c1,0.3,1.7,1.3,1.7,2.3v95.7
					c0,1-0.8,2-1.7,2.3l-14,3.3c-1,0.2-1.8-0.4-1.8-1.4v-43.7c0-1-0.8-1.8-1.8-1.8l-36.5,0.6c-1,0-1.8,0.8-1.8,1.8v48.4
					c0,1-0.8,1.8-1.8,1.9L191.7,157.8z"/>
			</g>
			<g>
				<path class="st0" d="M304.2,62.6c0.9,0.4,1.6,1.6,1.6,2.6v65.6c0,1-0.7,2.2-1.6,2.6l-14.5,6.7c-0.9,0.4-1.7-0.1-1.7-1.1V57
					c0-1,0.8-1.5,1.7-1.1L304.2,62.6z"/>
			</g>
		</g>
	</g>
</g>
</svg>
