<svg id="Layer_1" data-name="Layer 1" xmlns="http://www.w3.org/2000/svg" viewBox="0 0 376 196"><title>favicon</title><path d="M396,404c-49.3,0-95.77-9.66-130.86-27.21C228.29,358.37,208,333.23,208,306s20.29-52.37,57.14-70.79C300.23,217.66,346.7,208,396,208s95.77,9.66,130.86,27.21C563.71,253.63,584,278.77,584,306s-20.29,52.37-57.14,70.79C491.77,394.34,445.3,404,396,404Zm0-180c-46.86,0-90.79,9.06-123.7,25.52C241.15,265.09,224,285.15,224,306s17.15,40.91,48.3,56.48C305.21,378.94,349.14,388,396,388s90.79-9.06,123.7-25.52C550.85,346.91,568,326.85,568,306s-17.15-40.91-48.3-56.48C486.79,233.06,442.86,224,396,224Z" transform="translate(-208 -208)"/><path d="M294.3,263.9A1.13,1.13,0,0,1,296,265v82a1.13,1.13,0,0,1-1.7,1.1l-14.5-6.7a3.08,3.08,0,0,1-1.6-2.6V273.2a3.08,3.08,0,0,1,1.6-2.6Z" transform="translate(-208 -208)"/><path d="M345.3,250a51.91,51.91,0,0,1,15.7-.2,64.87,64.87,0,0,1,11.6,3.7,2.16,2.16,0,0,1,1.2,2.5l-3.6,14.7a1.45,1.45,0,0,1-2.1,1s-6.8-3.3-10.7-4.2a31.19,31.19,0,0,0-11.3-.8c-5.2.6-9.1,2.3-11.9,5a13,13,0,0,0-4.2,9.8c0,3.8,1.1,6.6,3.4,8.5s9.6,4.8,9.6,4.8a34,34,0,0,0,3.4,1.2l6,2.1c0.9,0.3,2.4,1,3.3,1.4,0,0,12.8,6.4,17.2,12a31.38,31.38,0,0,1,6.6,19.9,35.07,35.07,0,0,1-2.6,13.6,28.67,28.67,0,0,1-7.4,10.4,26.29,26.29,0,0,1-11.6,6,38.39,38.39,0,0,1-15.2.3,61.5,61.5,0,0,1-15.6-4.9,108.67,108.67,0,0,1-12.4-7.6,2.94,2.94,0,0,1-1-2.8l2.9-10a1.28,1.28,0,0,1,2-.8,99.78,99.78,0,0,0,10.5,5.8,41.82,41.82,0,0,0,12.8,3.5c5.4,0.7,9.8-.1,13-2.3s4.8-5.7,4.8-10.5a15.1,15.1,0,0,0-.8-4.8,11.43,11.43,0,0,0-2.7-4.4,21,21,0,0,0-5.3-4c-2.2-1.3-6.8-3.3-6.8-3.3-0.9-.4-2.4-1-3.3-1.4l-5-2c-0.9-.4-2.4-1-3.3-1.5,0,0-10.4-5.4-14.3-9.3s-5.7-9.3-5.7-16.4a33.27,33.27,0,0,1,8.1-21.8C326.1,256.4,336.9,251.2,345.3,250Z" transform="translate(-208 -208)"/><path d="M399.7,365.8a1.79,1.79,0,0,1-1.8-1.8V248a1.79,1.79,0,0,1,1.8-1.8l16.1,0.6a2,2,0,0,1,1.8,1.9v44.2a1.79,1.79,0,0,0,1.8,1.8l36.5,0.9a1.77,1.77,0,0,0,1.8-1.7v-40a1.4,1.4,0,0,1,1.8-1.4l14,3.3a2.46,2.46,0,0,1,1.7,2.3v95.7a2.61,2.61,0,0,1-1.7,2.3l-14,3.3a1.4,1.4,0,0,1-1.8-1.4V314.3a1.79,1.79,0,0,0-1.8-1.8l-36.5.6a1.79,1.79,0,0,0-1.8,1.8v48.4a2,2,0,0,1-1.8,1.9Z" transform="translate(-208 -208)"/><path d="M512.2,270.6a3.08,3.08,0,0,1,1.6,2.6v65.6a3.08,3.08,0,0,1-1.6,2.6l-14.5,6.7A1.13,1.13,0,0,1,496,347V265a1.13,1.13,0,0,1,1.7-1.1Z" transform="translate(-208 -208)"/></svg>